<?xml version="1.0" standalone="no"?>
<!DOCTYPE svg PUBLIC "-//W3C//DTD SVG 20010904//EN"
 "http://www.w3.org/TR/2001/REC-SVG-20010904/DTD/svg10.dtd">
<svg version="1.0" xmlns="http://www.w3.org/2000/svg"
 width="1800.000000pt" height="1014.000000pt" viewBox="0 0 1800.000000 1014.000000"
 preserveAspectRatio="xMidYMid meet">
<metadata>
Created by potrace 1.10, written by Peter Selinger 2001-2011
</metadata>
<g transform="translate(0.000000,1014.000000) scale(0.100000,-0.100000)"
fill="#000000" stroke="none">
<path d="M840 8331 c-88 -19 -162 -55 -242 -117 -75 -57 -88 -52 -88 32 0 45
-4 66 -13 70 -8 3 -122 6 -255 7 l-242 2 0 -808 0 -807 263 2 262 3 6 440 c5
436 11 507 43 570 25 50 83 111 128 136 36 19 59 23 133 23 96 1 115 -6 178
-63 77 -69 80 -98 87 -636 l5 -470 270 0 270 0 5 465 c3 256 9 474 13 485 37
88 65 131 110 166 60 48 81 54 182 54 72 -1 85 -4 125 -30 47 -32 90 -87 111
-145 10 -26 15 -153 19 -515 l5 -480 270 0 270 0 3 490 c2 403 0 508 -13 589
-39 250 -138 403 -318 489 -254 122 -615 71 -809 -114 -34 -33 -68 -59 -76
-59 -8 0 -34 23 -60 51 -50 56 -133 114 -202 142 -118 47 -301 59 -440 28z"/>
<path d="M6915 8334 c-38 -7 -81 -19 -95 -25 -74 -33 -116 -58 -157 -92 -25
-21 -51 -36 -57 -34 -6 2 -12 30 -14 63 -2 32 -7 63 -11 67 -11 11 -492 10
-503 -1 -4 -4 -7 -498 -6 -1098 l3 -1089 263 -5 c144 -3 267 -3 272 -2 6 2 10
133 10 358 0 345 0 354 20 354 10 0 34 -13 52 -28 37 -31 117 -72 193 -99 39
-14 83 -18 205 -18 145 0 160 2 235 29 167 59 262 119 351 223 106 124 144
206 183 400 25 120 26 209 6 329 -55 323 -219 532 -495 637 -120 45 -316 59
-455 31z m200 -448 c83 -40 123 -80 163 -161 63 -127 63 -294 0 -420 -66 -135
-199 -207 -352 -191 -125 13 -223 85 -279 206 -29 61 -31 73 -31 185 -1 144
17 208 80 289 32 41 60 63 115 90 65 32 80 36 153 36 72 0 90 -4 151 -34z"/>
<path d="M8755 8330 c-107 -21 -129 -28 -220 -71 -123 -57 -228 -142 -309
-249 -51 -68 -57 -79 -95 -171 -80 -192 -80 -452 1 -642 105 -249 292 -401
595 -484 91 -25 113 -27 293 -28 132 0 209 4 240 13 175 51 235 75 300 117 62
41 131 106 128 120 -5 21 -262 285 -276 285 -8 0 -31 -12 -51 -27 -87 -66
-166 -93 -297 -100 -87 -5 -112 -2 -175 17 -85 27 -132 54 -183 106 -43 44
-80 113 -74 140 3 18 24 19 586 24 503 4 584 7 592 20 26 41 0 328 -37 418
-71 172 -139 267 -256 356 -68 51 -210 126 -240 126 -7 0 -17 4 -22 9 -36 35
-364 48 -500 21z m318 -376 c88 -28 159 -90 203 -176 15 -30 24 -62 22 -81
l-3 -32 -335 0 -335 0 -3 28 c-6 51 49 144 126 211 65 57 224 81 325 50z"/>
<path d="M10660 8347 c-3 -3 -43 -11 -90 -17 -223 -30 -413 -142 -494 -290
-62 -114 -71 -271 -24 -399 39 -107 133 -191 268 -239 92 -33 276 -70 455 -92
82 -10 122 -21 161 -46 40 -25 44 -33 44 -80 0 -47 -22 -73 -85 -100 -55 -23
-309 -23 -410 1 -85 20 -228 69 -281 95 -49 26 -61 25 -70 -2 -4 -13 -20 -51
-35 -85 -16 -33 -29 -64 -29 -66 0 -7 -57 -134 -70 -159 -14 -25 -15 -24 44
-56 77 -41 121 -55 381 -113 40 -10 129 -14 270 -14 199 0 216 1 319 29 59 15
129 37 154 49 112 49 214 129 257 202 34 60 75 189 75 241 0 108 -69 268 -138
320 -20 15 -39 31 -42 35 -7 9 -83 43 -165 72 -62 22 -152 39 -400 78 -75 11
-170 43 -197 66 -23 21 -31 60 -18 98 11 34 52 60 131 84 111 34 409 -7 537
-75 25 -14 51 -23 58 -20 12 5 41 60 72 141 11 28 34 81 52 118 44 94 40 104
-48 138 -87 33 -138 46 -257 66 -89 14 -415 30 -425 20z"/>
<path d="M12349 8346 c-3 -3 -36 -10 -74 -16 -89 -14 -238 -85 -323 -154 -101
-81 -180 -198 -230 -336 -43 -122 -55 -204 -49 -355 7 -189 16 -229 83 -374
75 -161 216 -298 374 -363 146 -60 165 -63 335 -63 139 0 169 3 223 22 81 28
156 72 206 118 21 20 42 33 47 28 4 -4 9 -37 11 -73 l3 -65 263 -3 262 -2 0
804 c0 443 -3 806 -7 808 -5 2 -128 2 -275 0 l-268 -3 0 -55 c0 -69 -16 -77
-71 -38 -55 40 -91 63 -109 70 -8 3 -24 10 -35 15 -41 18 -183 39 -271 39 -50
0 -93 -2 -95 -4z m356 -445 c104 -47 179 -128 210 -226 13 -44 16 -82 13 -183
l-3 -128 -40 -69 c-46 -79 -123 -148 -187 -167 -72 -21 -205 -16 -263 10 -85
39 -158 122 -192 219 -12 35 -16 81 -16 168 0 101 4 128 22 170 40 91 91 147
171 188 67 34 78 37 159 37 62 0 97 -6 126 -19z"/>
<path d="M4812 7358 c-12 -24 -28 -52 -34 -63 -7 -11 -29 -45 -48 -75 -19 -30
-37 -57 -40 -60 -3 -3 -17 -23 -30 -45 -13 -22 -27 -42 -30 -45 -3 -3 -21 -25
-40 -50 -126 -165 -403 -440 -442 -440 -37 0 -200 146 -278 249 l-25 33 -68
-86 c-77 -96 -202 -215 -298 -283 -63 -43 -157 -93 -178 -93 -6 0 -11 -21 -11
-50 l0 -50 40 0 c39 0 138 -17 270 -45 117 -25 359 -40 645 -40 288 1 469 15
603 49 81 21 166 42 222 56 46 11 95 30 142 56 14 7 32 14 40 14 14 0 68 26
182 89 87 48 211 144 297 232 72 73 139 159 139 178 0 9 -22 20 -315 161 -467
225 -470 226 -525 255 -25 13 -52 24 -60 24 -9 1 -20 5 -25 10 -9 9 -102 61
-109 61 -1 0 -12 -19 -24 -42z"/>
<path d="M7927 6064 c-4 -4 -7 -304 -7 -666 l0 -658 55 0 55 0 -2 663 -3 662
-45 3 c-25 2 -49 0 -53 -4z"/>
<path d="M9097 6063 c-4 -3 -7 -303 -7 -665 l0 -658 54 0 55 0 3 43 c4 53 33
62 64 20 28 -38 124 -85 185 -91 63 -6 161 21 212 58 48 35 86 88 116 159 20
47 22 67 19 170 -3 104 -6 122 -32 176 -35 71 -84 121 -152 155 -71 36 -198
36 -268 0 -27 -14 -61 -40 -76 -58 -18 -21 -35 -33 -46 -30 -18 3 -19 21 -22
366 l-2 362 -48 0 c-27 0 -52 -3 -55 -7z m464 -729 c82 -45 128 -131 129 -244
0 -87 -13 -130 -60 -188 -51 -65 -107 -92 -191 -92 -53 0 -72 5 -111 30 -173
109 -173 381 1 495 54 36 165 35 232 -1z"/>
<path d="M10857 6064 c-12 -12 -9 -1322 3 -1326 6 -2 31 -2 55 0 l45 4 -2 662
-3 661 -45 3 c-25 2 -49 0 -53 -4z"/>
<path d="M7098 5897 c-31 -7 -60 -15 -64 -19 -4 -5 -14 -8 -23 -8 -30 0 -177
-104 -224 -159 -69 -79 -123 -185 -139 -271 -28 -147 -10 -278 57 -406 150
-291 482 -403 774 -262 105 51 221 195 252 313 18 66 32 182 26 199 -6 15 -30
16 -219 14 l-213 -3 -3 -32 c-2 -18 2 -41 8 -53 10 -19 20 -20 145 -20 124 0
134 -1 140 -20 11 -35 -7 -90 -51 -156 -56 -84 -82 -106 -180 -154 -74 -37
-87 -40 -161 -40 -121 0 -218 43 -315 140 -306 306 -121 810 311 847 97 9 259
-57 334 -134 23 -24 49 -43 57 -43 8 0 29 18 47 39 l32 39 -44 41 c-63 58
-139 104 -215 131 -78 27 -244 35 -332 17z"/>
<path d="M11209 5878 c0 -7 -1 -264 -2 -572 -2 -463 0 -559 12 -564 7 -3 32
-5 55 -6 l41 -1 3 236 c2 184 5 239 16 248 7 6 62 14 121 17 167 9 268 59 321
158 24 44 28 65 32 157 4 97 2 110 -21 160 -37 82 -122 139 -237 161 -30 6
-119 13 -197 15 -113 3 -143 1 -144 -9z m338 -114 c80 -23 138 -83 148 -153 4
-28 4 -74 0 -103 -6 -44 -14 -58 -56 -99 -35 -34 -60 -50 -87 -54 -20 -3 -53
-10 -73 -15 -60 -16 -146 -13 -153 6 -8 21 -8 419 1 427 13 13 166 7 220 -9z"/>
<path d="M8475 5446 c-82 -21 -104 -34 -162 -89 -74 -70 -103 -136 -110 -247
-8 -137 34 -239 132 -316 153 -121 374 -107 511 33 51 53 68 84 89 166 33 127
4 249 -84 349 -86 97 -238 139 -376 104z m175 -105 c106 -40 168 -117 177
-221 8 -88 -11 -151 -65 -211 -56 -63 -113 -89 -193 -89 -130 0 -242 106 -256
244 -6 62 7 112 50 177 32 50 65 74 137 101 60 22 90 22 150 -1z"/>
<path d="M10165 5453 c-79 -21 -167 -91 -198 -156 -8 -18 -21 -45 -28 -61 -10
-20 -14 -69 -14 -150 0 -115 2 -124 32 -186 28 -58 62 -99 115 -139 32 -24
123 -51 173 -51 71 0 141 28 194 78 56 53 74 52 81 -8 3 -28 10 -45 18 -44 6
1 30 2 52 3 l40 1 -2 348 -3 347 -52 3 -52 3 -3 -48 c-2 -40 -7 -49 -24 -51
-14 -2 -29 8 -46 30 -38 50 -108 81 -192 84 -39 2 -80 0 -91 -3z m211 -112
c92 -45 144 -136 144 -254 0 -87 -22 -147 -77 -207 -48 -54 -105 -74 -192 -68
-59 4 -76 10 -110 37 -22 17 -55 55 -73 84 -31 49 -33 57 -33 147 0 77 4 104
22 140 23 49 71 99 118 123 44 23 151 22 201 -2z"/>
<path d="M12114 5440 c-52 -20 -128 -85 -155 -130 -39 -65 -54 -125 -53 -220
0 -108 15 -161 69 -245 98 -154 332 -180 454 -51 49 51 71 48 71 -8 0 -25 3
-47 8 -49 4 -2 28 -2 55 1 l47 4 0 349 0 349 -55 0 -55 0 0 -49 c0 -28 -5 -53
-11 -57 -6 -3 -28 12 -49 33 -57 60 -112 85 -200 89 -59 3 -86 0 -126 -16z
m248 -99 c48 -21 72 -45 113 -109 24 -40 26 -53 26 -140 0 -106 -14 -150 -68
-207 -56 -60 -81 -70 -174 -70 -82 0 -87 1 -132 35 -29 22 -58 57 -78 95 -29
53 -32 69 -32 140 0 61 6 92 22 128 26 55 79 111 124 131 47 21 147 20 199 -3z"/>
<path d="M12730 5430 c0 -12 22 -58 67 -140 16 -30 47 -86 68 -125 20 -38 41
-74 45 -80 4 -5 23 -39 42 -75 20 -36 48 -87 63 -114 l27 -49 -20 -36 c-11
-20 -43 -79 -70 -131 -103 -199 -144 -276 -164 -308 -29 -47 -19 -62 40 -62
52 0 71 13 91 60 6 14 15 32 19 40 15 26 33 60 138 265 111 217 198 386 214
413 6 9 14 28 20 42 5 14 14 32 18 40 41 71 120 227 126 248 7 21 4 22 -50 22
-46 0 -60 -4 -75 -22 -11 -11 -19 -26 -19 -32 0 -15 -63 -140 -72 -144 -5 -2
-8 -8 -8 -14 0 -17 -112 -238 -120 -238 -20 0 -40 13 -40 26 0 7 -14 40 -31
71 -86 157 -116 214 -150 278 l-37 70 -61 3 c-39 2 -61 -1 -61 -8z"/>
</g>
</svg>
